<?xml version="1.0" encoding="UTF-8" standalone="no"?>
<!-- Created with Inkscape (http://www.inkscape.org/) -->

<svg
   xmlns:dc="http://purl.org/dc/elements/1.1/"
   xmlns:cc="http://creativecommons.org/ns#"
   xmlns:rdf="http://www.w3.org/1999/02/22-rdf-syntax-ns#"
   xmlns:svg="http://www.w3.org/2000/svg"
   xmlns="http://www.w3.org/2000/svg"
   xmlns:sodipodi="http://sodipodi.sourceforge.net/DTD/sodipodi-0.dtd"
   xmlns:inkscape="http://www.inkscape.org/namespaces/inkscape"
   width="212.08203mm"
   height="206.85942mm"
   viewBox="0 0 212.08203 206.85942"
   version="1.1"
   id="svg8"
   inkscape:version="0.92.1 r15371"
   sodipodi:docname="add.svg">
  <defs
     id="defs2">
    <filter
       inkscape:label="Light Eraser"
       style="color-interpolation-filters:sRGB"
       id="filter297">
      <feColorMatrix
         values="1 0 0 0 0 0 1 0 0 0 0 0 1 0 0 212.5 715.4 72.1 -856.771 0 "
         result="colormatrix"
         id="feColorMatrix293" />
      <feComposite
         in2="colormatrix"
         operator="arithmetic"
         k2="1"
         result="fbSourceGraphic"
         id="feComposite295"
         k1="0"
         k3="0"
         k4="0" />
      <feColorMatrix
         result="fbSourceGraphicAlpha"
         in="fbSourceGraphic"
         values="0 0 0 -1 0 0 0 0 -1 0 0 0 0 -1 0 0 0 0 1 0"
         id="feColorMatrix299" />
      <feColorMatrix
         id="feColorMatrix301"
         values="1 0 0 0 0 0 1 0 0 0 0 0 1 0 0 212.5 715.4 72.1 -856.8 0 "
         result="colormatrix"
         in="fbSourceGraphic" />
      <feComposite
         in2="colormatrix"
         id="feComposite303"
         operator="arithmetic"
         k2="1"
         result="fbSourceGraphic"
         k1="0"
         k3="0"
         k4="0" />
      <feColorMatrix
         result="fbSourceGraphicAlpha"
         in="fbSourceGraphic"
         values="0 0 0 -1 0 0 0 0 -1 0 0 0 0 -1 0 0 0 0 1 0"
         id="feColorMatrix305" />
      <feColorMatrix
         id="feColorMatrix307"
         values="1 0 0 0 0 0 1 0 0 0 0 0 1 0 0 212.5 715.4 72.1 -856.8 0 "
         result="colormatrix"
         in="fbSourceGraphic" />
      <feComposite
         in2="colormatrix"
         id="feComposite309"
         operator="arithmetic"
         k2="1"
         result="composite"
         k1="0"
         k3="0"
         k4="0" />
    </filter>
    <filter
       inkscape:label="Light Eraser"
       style="color-interpolation-filters:sRGB"
       id="filter417">
      <feColorMatrix
         values="1 0 0 0 0 0 1 0 0 0 0 0 1 0 0 -212.5 -715.4 -72.1 658.854 0 "
         result="colormatrix"
         id="feColorMatrix413" />
      <feComposite
         in2="colormatrix"
         operator="arithmetic"
         k2="1"
         result="fbSourceGraphic"
         id="feComposite415"
         k1="0"
         k3="0"
         k4="0" />
      <feColorMatrix
         result="fbSourceGraphicAlpha"
         in="fbSourceGraphic"
         values="0 0 0 -1 0 0 0 0 -1 0 0 0 0 -1 0 0 0 0 1 0"
         id="feColorMatrix419" />
      <feColorMatrix
         id="feColorMatrix421"
         values="1 0 0 0 0 0 1 0 0 0 0 0 1 0 0 -212.5 -715.4 -72.1 658.9 0 "
         result="colormatrix"
         in="fbSourceGraphic" />
      <feComposite
         in2="colormatrix"
         id="feComposite423"
         operator="arithmetic"
         k2="1"
         result="composite"
         k1="0"
         k3="0"
         k4="0" />
    </filter>
  </defs>
  <sodipodi:namedview
     id="base"
     pagecolor="#ffffff"
     bordercolor="#666666"
     borderopacity="1.0"
     inkscape:pageopacity="0.0"
     inkscape:pageshadow="2"
     inkscape:zoom="0.35"
     inkscape:cx="1349.3188"
     inkscape:cy="277.81717"
     inkscape:document-units="mm"
     inkscape:current-layer="layer1"
     showgrid="false"
     inkscape:pagecheckerboard="true"
     inkscape:window-width="1280"
     inkscape:window-height="962"
     inkscape:window-x="-8"
     inkscape:window-y="-8"
     inkscape:window-maximized="1" />
  <metadata
     id="metadata5">
    <rdf:RDF>
      <cc:Work
         rdf:about="">
        <dc:format>image/svg+xml</dc:format>
        <dc:type
           rdf:resource="http://purl.org/dc/dcmitype/StillImage" />
        <dc:title></dc:title>
      </cc:Work>
    </rdf:RDF>
  </metadata>
  <g
     inkscape:label="Layer 1"
     inkscape:groupmode="layer"
     id="layer1"
     transform="translate(251.17393,-217.0379)">
    <path
       style="fill:#ffffff;fill-opacity:1;stroke-width:0.75595242"
       d="m -153.45833,423.60724 c -7.13332,-0.46523 -18.64939,-2.37586 -21.54464,-3.5745 -0.83155,-0.34426 -3.89316,-1.39659 -6.80358,-2.33852 -5.70913,-1.84769 -12.55552,-5.00486 -17.3869,-8.01787 -1.6631,-1.03716 -3.53408,-2.10887 -4.15774,-2.38157 -0.62366,-0.27269 -1.30402,-0.69167 -1.5119,-0.93105 -0.20789,-0.23939 -1.90878,-1.45483 -3.77977,-2.70098 -8.28847,-5.52047 -22.98536,-21.59622 -28.33365,-30.99192 -1.18334,-2.07887 -2.39027,-3.94985 -2.68205,-4.15774 -0.29179,-0.20788 -0.79197,-1.22842 -1.11151,-2.26785 -0.31955,-1.03944 -1.5339,-3.93095 -2.69856,-6.4256 -1.16465,-2.49464 -2.35668,-5.55625 -2.64894,-6.80357 -0.29225,-1.24732 -0.81485,-2.63109 -1.16132,-3.07504 -0.34648,-0.44395 -1.17649,-3.84573 -1.84447,-7.55952 -3.79472,-21.09733 -2.28608,-41.60918 4.22182,-57.40115 2.44808,-5.94047 4.89393,-11.39905 5.2502,-11.71726 0.23275,-0.20789 0.85496,-1.22843 1.38267,-2.26786 1.55178,-3.05652 5.10485,-8.65395 6.55947,-10.33365 0.42116,-0.48634 1.44611,-1.80894 2.27765,-2.93912 2.36919,-3.22003 14.79207,-15.60169 18.14286,-18.08265 1.6631,-1.23138 3.36399,-2.50905 3.77976,-2.83927 1.60994,-1.27868 6.20645,-4.08214 9.6384,-5.87853 1.97492,-1.03375 3.59077,-2.13526 3.59077,-2.44781 0,-0.31254 0.40287,-0.56826 0.89526,-0.56826 0.49239,0 2.27833,-0.64905 3.96875,-1.44233 4.23567,-1.98772 14.35983,-5.36124 16.08946,-5.36124 0.7825,0 1.74589,-0.31875 2.14087,-0.70834 0.39499,-0.38958 4.46012,-1.09522 9.03364,-1.56807 4.57351,-0.47286 10.25083,-1.154 12.61627,-1.51366 2.48261,-0.37747 6.31759,-0.36413 9.07143,0.0315 2.62384,0.37699 8.33266,1.04388 12.68625,1.48196 4.3536,0.43808 8.24864,1.12952 8.65566,1.53654 0.40702,0.40702 1.38025,0.74003 2.16275,0.74003 1.72962,0 11.85379,3.37352 16.08946,5.36124 1.690422,0.79328 3.476359,1.44233 3.968749,1.44233 0.492397,0 0.89526,0.30051 0.89526,0.66779 0,0.36728 0.595312,0.86303 1.322916,1.10167 0.727604,0.23864 2.683632,1.29 4.346726,2.33636 1.663094,1.04636 4.044344,2.46906 5.291667,3.16155 1.247322,0.69249 2.437947,1.48472 2.645833,1.76052 0.207886,0.27579 1.738691,1.493 3.401785,2.7049 2.588593,1.88632 15.283029,14.3204 18.121003,17.74936 2.089331,2.52442 6.44745,9.09937 6.44745,9.72706 0,0.36913 0.426191,1.02485 0.947095,1.45717 1.515994,1.25816 8.880286,16.57403 8.880286,18.46874 0,0.40403 0.482312,1.80655 1.071804,3.11671 4.482004,9.96136 5.8722,35.32255 2.76191,50.38508 -0.901473,4.36562 -1.919492,8.45893 -2.262278,9.09624 -0.34278,0.63731 -0.879838,2.32703 -1.19346,3.75495 -0.313622,1.42791 -0.846062,3.11763 -1.183194,3.75495 -1.555418,2.94034 -4.486449,9.84012 -4.486449,10.56132 0,0.44153 -0.255134,0.80396 -0.566964,0.80542 -0.311831,0.002 -1.575572,1.87243 -2.808311,4.15774 -1.232731,2.2853 -2.508401,4.15509 -2.834821,4.15509 -0.326412,0 -0.593475,0.36692 -0.593475,0.81538 0,1.27311 -8.332039,11.13744 -13.997366,16.57153 -7.612094,7.3014 -7.56331,7.25887 -8.92794,7.78253 -0.695847,0.26702 -1.265169,0.81342 -1.265169,1.21423 0,0.4008 -0.678347,0.94403 -1.507432,1.20717 -0.829082,0.26314 -1.934662,0.88865 -2.456844,1.39001 -3.509576,3.3697 -21.070391,11.87934 -26.677391,12.92737 -1.64902,0.30823 -3.33839,0.82532 -3.75417,1.14911 -0.41577,0.32379 -3.1372,0.98918 -6.04762,1.47865 -2.91041,0.48947 -6.48229,1.2005 -7.9375,1.58006 -3.52434,0.91926 -15.30665,1.242 -24.19047,0.66263 z m 58.057139,-27.2751 c 0.626505,-0.6265 0.907143,-4.48531 0.907143,-12.47321 v -11.56608 h 12.473215 12.473214 V 368.216 c 0,-3.02021 -0.309917,-4.19579 -1.195758,-4.53572 -0.657663,-0.25237 -6.270608,-0.45885 -12.473214,-0.45885 h -11.277457 v -11.69067 c 0,-12.9766 -0.111435,-13.25576 -5.291667,-13.25576 -5.179175,0 -5.291665,0.28137 -5.291665,13.23657 v 11.67146 l -11.90625,0.20819 -11.90625,0.20818 -0.22671,4.34673 -0.22672,4.34672 h 12.13297 12.13296 v 11.27746 c 0,6.20261 0.20648,11.81555 0.45885,12.47322 0.56234,1.46544 7.813468,1.69248 9.217339,0.28861 z m -17.991669,-38.79061 c 0,-1.04508 -0.29864,-2.49084 -0.66366,-3.2128 -0.36501,-0.72197 -1.24514,-2.67337 -1.95583,-4.33647 -4.10002,-9.59447 -12.72751,-17.9667 -22.23862,-21.58063 -5.04197,-1.9158 -6.05378,-1.87067 -12.88267,0.57461 -5.1078,1.829 -6.78821,2.05132 -15.55386,2.05785 -9.01739,0.007 -10.35698,-0.18064 -16.25297,-2.27304 -5.88308,-2.0878 -6.69559,-2.20215 -9.62336,-1.35423 -5.26311,1.52425 -12.08322,5.5533 -16.33542,9.6503 -3.88921,3.74728 -8.88444,11.25658 -9.9134,14.90277 -0.27971,0.99117 -0.87256,2.54458 -1.31745,3.45203 -0.44489,0.90745 -0.60427,2.18312 -0.35419,2.83482 0.40693,1.06044 6.05644,1.18493 53.77307,1.18493 h 53.31836 z m -44.68432,-36.59688 c 10.59859,-1.79998 21.77998,-10.54647 27.09933,-21.1981 l 2.84392,-5.69476 v -10.20536 -10.20536 l -3.02015,-6.04762 c -6.90656,-13.82981 -20.54733,-22.30059 -35.91139,-22.30059 -18.22334,0 -34.95042,13.10786 -38.63168,30.27298 -0.51411,2.39723 -0.70959,6.93614 -0.47097,10.93577 0.3472,5.81951 0.82722,7.73314 3.22396,12.85235 5.12663,10.95004 16.22255,19.74991 27.14441,21.52749 2.42267,0.3943 4.61188,0.92393 4.8649,1.17696 0.53167,0.53166 5.91464,0.0654 12.85767,-1.11376 z"
       id="path427"
       inkscape:connector-curvature="0" />
    <path
       style="fill:#ffffff;fill-opacity:1;stroke-width:0.75595242"
       d="m -176.1369,309.08139 c -5.07354,-1.8214 -11.85393,-6.92307 -13.69579,-10.3049 -0.67915,-1.247 0.62745,-1.32292 22.76722,-1.32292 23.13792,0 23.47584,0.0222 22.69033,1.48992 -1.47865,2.7629 -6.26886,6.81679 -10.52443,8.90672 -3.51281,1.72515 -5.3798,2.10838 -11.03198,2.2645 -4.76492,0.13161 -7.82289,-0.17802 -10.20535,-1.03332 z"
       id="path429"
       inkscape:connector-curvature="0" />
  </g>
</svg>
