<?xml version="1.0" encoding="UTF-8" standalone="no"?>
<!-- Created with Inkscape (http://www.inkscape.org/) -->

<svg
   xmlns:dc="http://purl.org/dc/elements/1.1/"
   xmlns:cc="http://creativecommons.org/ns#"
   xmlns:rdf="http://www.w3.org/1999/02/22-rdf-syntax-ns#"
   xmlns:svg="http://www.w3.org/2000/svg"
   xmlns="http://www.w3.org/2000/svg"
   xmlns:sodipodi="http://sodipodi.sourceforge.net/DTD/sodipodi-0.dtd"
   xmlns:inkscape="http://www.inkscape.org/namespaces/inkscape"
   width="212.438mm"
   height="206mm"
   viewBox="0 0 212.438 206"
   version="1.1"
   id="svg524"
   inkscape:version="0.92.1 r15371"
   sodipodi:docname="create.svg">
  <defs
     id="defs518">
    <filter
       inkscape:label="Light Eraser"
       style="color-interpolation-filters:sRGB"
       id="filter553">
      <feColorMatrix
         values="1 0 0 0 0 0 1 0 0 0 0 0 1 0 0 -212.5 -715.4 -72.1 864.583 0 "
         result="colormatrix"
         id="feColorMatrix549" />
      <feComposite
         in2="colormatrix"
         operator="arithmetic"
         k2="1"
         result="composite"
         id="feComposite551"
         k1="0"
         k3="0"
         k4="0" />
    </filter>
  </defs>
  <sodipodi:namedview
     id="base"
     pagecolor="#ffffff"
     bordercolor="#666666"
     borderopacity="1.0"
     inkscape:pageopacity="0.0"
     inkscape:pageshadow="2"
     inkscape:zoom="0.35"
     inkscape:cx="-64.192864"
     inkscape:cy="311.06141"
     inkscape:document-units="mm"
     inkscape:current-layer="layer1"
     showgrid="false"
     inkscape:window-width="1440"
     inkscape:window-height="838"
     inkscape:window-x="-8"
     inkscape:window-y="-8"
     inkscape:window-maximized="1"
     inkscape:pagecheckerboard="true" />
  <metadata
     id="metadata521">
    <rdf:RDF>
      <cc:Work
         rdf:about="">
        <dc:format>image/svg+xml</dc:format>
        <dc:type
           rdf:resource="http://purl.org/dc/dcmitype/StillImage" />
        <dc:title />
      </cc:Work>
    </rdf:RDF>
  </metadata>
  <g
     inkscape:label="Layer 1"
     inkscape:groupmode="layer"
     id="layer1"
     transform="translate(0.02456583,-24.592459)">
    <path
       style="fill:#448295;fill-opacity:0.85082871;stroke-width:1.46316695"
       d="M 95.854805,230.32783 C 65.258232,227.52236 37.159552,211.42896 18.925781,186.26708 -5.4033688,152.69382 -6.3838488,107.89564 16.431412,72.298148 23.106924,61.882678 40.465845,45.382833 51.227012,39.224541 74.492715,25.910295 101.99402,21.472331 128.3708,26.775631 c 38.43081,7.726866 69.66643,35.920343 80.88328,73.00577 2.49273,8.241529 3.14816,14.097689 3.15907,28.226029 0.0133,16.06273 -0.4185,19.09396 -4.35428,30.62934 -11.16338,32.71894 -38.89995,59.19864 -71.13296,67.90964 -10.92276,2.95188 -30.48017,4.75253 -41.071105,3.78142 z M 82.430405,179.6403 C 102.60069,159.89739 128.44384,134.44364 142.51328,120.46273 L 153.14449,109.89844 141.74068,98.600661 C 135.46859,92.386884 128.42184,85.606542 126.08124,83.533234 l -4.25565,-3.769658 -10.10319,10.037747 c -9.90516,9.840965 -22.674625,22.396437 -58.019491,57.047187 l -17.653372,17.3067 v 15.72308 15.72309 h 15.037131 15.03715 z M 169.46402,95.151732 c 3.90054,-4.588995 7.60567,-9.259714 8.23361,-10.379383 C 179.43277,81.678591 176.9018,78.045974 165.512,67.282633 152.18431,54.687974 150.0115,54.554908 138.76165,65.644395 l -8.32065,8.20205 15.13145,14.784443 c 8.32231,8.131445 15.50681,14.802452 15.96557,14.824452 0.45876,0.022 4.02545,-3.714615 7.926,-8.303608 z"
       id="path555"
       inkscape:connector-curvature="0" />
  </g>
</svg>
