<?xml version="1.0" encoding="UTF-8" standalone="no"?>
<!-- Created with Inkscape (http://www.inkscape.org/) -->

<svg
   xmlns:dc="http://purl.org/dc/elements/1.1/"
   xmlns:cc="http://creativecommons.org/ns#"
   xmlns:rdf="http://www.w3.org/1999/02/22-rdf-syntax-ns#"
   xmlns:svg="http://www.w3.org/2000/svg"
   xmlns="http://www.w3.org/2000/svg"
   xmlns:sodipodi="http://sodipodi.sourceforge.net/DTD/sodipodi-0.dtd"
   xmlns:inkscape="http://www.inkscape.org/namespaces/inkscape"
   width="213.8564mm"
   height="36.726955mm"
   viewBox="0 0 213.8564 36.726955"
   version="1.1"
   id="svg8"
   inkscape:version="0.92.1 r15371"
   sodipodi:docname="Inspicio.svg">
  <defs
     id="defs2">
    <clipPath
       clipPathUnits="userSpaceOnUse"
       id="clipPath138">
      <rect
         style="fill:#ffffff;fill-opacity:1;stroke-width:0.26458332"
         id="rect140"
         width="73.088135"
         height="78.268997"
         x="244.9626"
         y="32.176872" />
    </clipPath>
    <filter
       inkscape:label="Light Eraser"
       style="color-interpolation-filters:sRGB"
       id="filter154">
      <feColorMatrix
         values="1 0 0 0 0 0 1 0 0 0 0 0 1 0 0 -212.5 -715.4 -72.1 988.7 0 "
         result="colormatrix"
         id="feColorMatrix150" />
      <feComposite
         in2="colormatrix"
         operator="arithmetic"
         k2="1"
         result="fbSourceGraphic"
         id="feComposite152"
         k1="0"
         k3="0"
         k4="0" />
      <feColorMatrix
         result="fbSourceGraphicAlpha"
         in="fbSourceGraphic"
         values="0 0 0 -1 0 0 0 0 -1 0 0 0 0 -1 0 0 0 0 1 0"
         id="feColorMatrix156" />
      <feColorMatrix
         id="feColorMatrix158"
         values="1 0 0 0 0 0 1 0 0 0 0 0 1 0 0 -212.5 -715.4 -72.1 988.7 0 "
         result="colormatrix"
         in="fbSourceGraphic" />
      <feComposite
         in2="colormatrix"
         id="feComposite160"
         operator="arithmetic"
         k2="1"
         result="composite"
         k1="0"
         k3="0"
         k4="0" />
    </filter>
  </defs>
  <sodipodi:namedview
     id="base"
     pagecolor="#ffffff"
     bordercolor="#666666"
     borderopacity="1.0"
     inkscape:pageopacity="0.0"
     inkscape:pageshadow="2"
     inkscape:zoom="0.49497475"
     inkscape:cx="530.71873"
     inkscape:cy="-250.07161"
     inkscape:document-units="mm"
     inkscape:current-layer="layer1"
     showgrid="false"
     inkscape:pagecheckerboard="true"
     inkscape:window-width="1280"
     inkscape:window-height="962"
     inkscape:window-x="-8"
     inkscape:window-y="-8"
     inkscape:window-maximized="1"
     showborder="false" />
  <metadata
     id="metadata5">
    <rdf:RDF>
      <cc:Work
         rdf:about="">
        <dc:format>image/svg+xml</dc:format>
        <dc:type
           rdf:resource="http://purl.org/dc/dcmitype/StillImage" />
        <dc:title></dc:title>
      </cc:Work>
    </rdf:RDF>
  </metadata>
  <g
     inkscape:label="Layer 1"
     inkscape:groupmode="layer"
     id="layer1"
     transform="translate(50.242034,-14.249142)">
    <g
       id="g245"
       transform="translate(145.39462,-88.198944)">
      <text
         transform="scale(0.99510759,1.0049165)"
         id="text23-81"
         y="138.15215"
         x="-162.21323"
         style="font-style:normal;font-variant:normal;font-weight:normal;font-stretch:normal;font-size:29.1830368px;line-height:1.25;font-family:'Let That Be Enough';-inkscape-font-specification:'Let That Be Enough';letter-spacing:0px;word-spacing:0px;fill:#000000;fill-opacity:1;stroke:none;stroke-width:0.72957599"
         xml:space="preserve"><tspan
           style="font-style:normal;font-variant:normal;font-weight:normal;font-stretch:normal;font-family:'KG Summer Sunshine Blackout';-inkscape-font-specification:'KG Summer Sunshine Blackout';fill:#ffffff;stroke-width:0.72957599"
           y="138.15215"
           x="-162.21323"
           id="tspan21-5"
           sodipodi:role="line">INSPICIO</tspan></text>
      <path
         style="fill:#f9f9f9;fill-opacity:1;stroke-width:0.28236872"
         d="m -185.76285,137.79093 c -1.15449,-0.23723 -2.74126,-0.8043 -3.52612,-1.26017 -1.04934,-0.60952 -1.84568,-0.82887 -3.00909,-0.82887 -1.63613,0 -2.82511,-0.40383 -3.14886,-1.06951 -0.28534,-0.58669 -0.23431,-14.37202 0.0559,-15.08079 0.27696,-0.67658 1.65146,-1.2798 2.92242,-1.28256 1.09066,-0.003 2.07795,-0.79939 2.61982,-2.11491 0.52196,-1.26716 1.80998,-2.97686 3.34516,-4.44029 1.30922,-1.24806 2.27664,-3.40977 2.84139,-6.34914 0.47796,-2.48773 0.71002,-2.91821 1.57224,-2.9166 1.13887,0.003 2.19836,1.11222 2.51121,2.6311 0.36298,1.76242 -0.0261,5.40043 -0.86925,8.12988 -0.33299,1.0778 -0.58152,1.98159 -0.5523,2.00843 0.0292,0.0269 1.94233,0.3696 4.25132,0.7617 4.86006,0.82531 5.30948,1.11516 5.30948,3.42429 0,1.42946 -0.38278,2.12474 -1.48679,2.70064 -0.35101,0.18309 -0.44625,0.32814 -0.22318,0.33987 0.48206,0.0253 1.35044,1.23252 1.57083,2.18365 0.37172,1.60426 -0.95228,3.2613 -2.45386,3.07108 -0.38613,-0.049 -0.36029,0.0115 0.11839,0.27436 1.09081,0.60022 1.48681,1.30006 1.48681,2.62769 0,1.80945 -0.84781,2.84107 -2.33482,2.84107 -1.12252,0 -1.12252,0 -0.62862,0.64572 0.70953,0.92764 0.63876,2.43822 -0.15953,3.40549 -0.63642,0.77111 -0.75066,0.79092 -4.38342,0.76046 -2.05148,-0.0173 -4.67456,-0.22536 -5.82905,-0.46259 z"
         id="use166-9-3"
         inkscape:connector-curvature="0" />
    </g>
  </g>
</svg>
